<?xml version="1.0" encoding="utf-8"?>
<!-- Generator: Adobe Illustrator 21.0.0, SVG Export Plug-In . SVG Version: 6.00 Build 0)  -->
<svg version="1.1" id="Layer_1" xmlns="http://www.w3.org/2000/svg" xmlns:xlink="http://www.w3.org/1999/xlink" x="0px" y="0px"
	 viewBox="0 0 40 40" style="enable-background:new 0 0 40 40;" xml:space="preserve">
<style type="text/css">
	.st0{fill:#8C8C8E;}
</style>
<title></title>
<g id="Google_Play">
	<path class="st0" d="M4.1,0.5C4.8,0.4,5.5,0.6,6.1,1l21.1,12l-5.3,5.4L4.1,0.5z M2.4,2.2C2.3,2.5,2.3,2.9,2.3,3.2v33.5
		c0,0.4,0,0.7,0.1,1.1L20.3,20L2.4,2.2z M21.9,21.6L4.1,39.5c0.7,0.1,1.5-0.1,2.1-0.5l21.1-12L21.9,21.6z M35.7,17.8l-6.4-3.6
		L23.5,20l5.8,5.8l6.4-3.6C37.8,21,37.8,19,35.7,17.8L35.7,17.8z" fill="#ffffff"/>
</g>
</svg>
